<?xml version="1.0" encoding="UTF-8"?>
<!-- Created with Inkscape (http://www.inkscape.org/) -->
<svg width="1e3" height="1e3" version="1.1" viewBox="0 0 264.58 264.58" xmlns="http://www.w3.org/2000/svg">
 <g stroke-linecap="round" stroke-linejoin="round">
  <path transform="scale(.26458)" d="m500.25 0a500.25 500.25 0 0 0-500.25 500.25 500.25 500.25 0 0 0 500.25 500.25 500.25 500.25 0 0 0 500.25-500.25 500.25 500.25 0 0 0-500.25-500.25zm0 250.2a250.05 250.05 0 0 1 250.05 250.05 250.05 250.05 0 0 1-250.05 250.05 250.05 250.05 0 0 1-250.05-250.05 250.05 250.05 0 0 1 250.05-250.05z" color="#000000" stroke-width="100" style="-inkscape-stroke:none"/>
  <g fill="none" stroke="#656565" stroke-width="15.346">
   <path d="m65.511 173.32-39.715 24.338"/>
   <path d="m54.199 138.51-46.436 3.6546"/>
   <path d="m59.925 102.36-43.034-17.825"/>
   <path d="m81.44 72.742-30.251-35.419"/>
   <path d="m114.05 56.124-10.874-45.292"/>
   <path d="m150.66 56.123 10.874-45.292"/>
   <path d="m183.27 72.741 30.251-35.419"/>
   <path d="m204.79 102.35 43.034-17.825"/>
   <path d="m210.52 138.51 46.436 3.6546"/>
   <path d="m199.21 173.32 39.715 24.338"/>
  </g>
 </g>
 <g display="none" fill="none" stroke-linecap="round">
  <g>
   <g stroke-width="15.875">
    <path d="m65.511 173.32-39.715 24.338" stroke="#30f1ff"/>
    <path d="m132.36 85.576v93.564" stroke="#000"/>
    <path d="m65.511 173.32-39.715 24.338" stroke="#30f1ff"/>
    <path d="m54.199 138.51-46.436 3.6546" stroke="#30f1ff"/>
   </g>
   <path d="m92.08 112.83c4.101-8.3276 8.202-16.655 15.256-20.819s17.06-4.1639 27.331-4.1639c10.271 0 20.806 0 27.859 4.6901s10.625 14.07-1.6961 25.92c-12.322 11.851-40.535 26.172-54.643 35.589-14.107 9.4174-14.107 13.93-14.107 16.187 0 2.2567 0 2.2569 7.0539 2.2568 7.0539-1.2e-4 21.161-3.5e-4 32.054-4.7e-4 10.893-1.2e-4 18.572-1.2e-4 25.626 0 7.0536 1.2e-4 13.482 3.5e-4 16.696-2.7348s3.214-8.2059 3.214-13.677" stroke="#000" stroke-width="14.361"/>
  </g>
  <g stroke="#30f1ff" stroke-width="15.875">
   <path d="m65.511 173.32-39.715 24.338"/>
   <path d="m54.199 138.51-46.436 3.6546"/>
   <path d="m59.925 102.36-43.034-17.825"/>
  </g>
  <path d="m91.767 104.49c0-4.2404 0-8.4811 3.8509-11.633s11.552-5.2159 18.318-6.2477c6.7654-1.0318 12.594-1.0318 19.704-1.0318 7.1096 0 15.499 0 22.535 0.76127 7.0359 0.76127 12.718 2.2837 16.32 6.2311 3.602 3.9474 5.1244 10.319 1.8624 17.355-3.262 7.0358-11.308 14.735-19.105 18.585-7.7971 3.8498-15.345 3.8498-15.329 3.8498 0.0157 0 7.5948 0 15.392 4.5226s15.812 13.567 18.621 20.166 0.41147 10.75-2.8629 14.025c-3.2744 3.2745-7.426 5.6714-14.024 6.8699-6.5984 1.1985-15.644 1.1985-25.31 1.1985-9.6666 0-19.954 0-26.78-0.97103-6.8259-0.97103-10.19-2.9132-11.872-6.5463-1.6822-3.6331-1.6822-8.9571-1.6822-14.281" stroke="#000" stroke-linejoin="bevel" stroke-width="15.875"/>
  <g stroke="#30f1ff" stroke-width="15.875">
   <path d="m65.511 173.32-39.715 24.338"/>
   <path d="m54.199 138.51-46.436 3.6546"/>
   <path d="m59.925 102.36-43.034-17.825"/>
   <path d="m81.44 72.742-30.251-35.419"/>
  </g>
  <path d="m94.994 94.994v28.795c0 6.6563 0 8.8991 1.1539 10.02 1.1539 1.1214 3.4612 1.1214 11.896 1.1214h33.551c10.555 0 17.103 0 20.377-1.6514s3.2739-4.9545 3.2739-15.791v-19.907 76.738" stroke="#000" stroke-width="15.875"/>
  <g stroke="#30f1ff" stroke-width="15.875">
   <path d="m65.511 173.32-39.715 24.338"/>
   <path d="m54.199 138.51-46.436 3.6546"/>
   <path d="m59.925 102.36-43.034-17.825"/>
   <path d="m81.44 72.742-30.251-35.419"/>
   <path d="m114.05 56.124-10.874-45.292"/>
  </g>
  <path d="m172.37 92.343h-61.083c-12.948 0-14.776 0-15.69 5.3664-0.91408 5.3664-0.91408 16.098-0.91408 22.572s0 8.6896 11.969 9.7973c11.969 1.1077 35.907 1.1077 48.823 1.1077 12.915 0 14.808 0 15.754 6.4418 0.94622 6.4418 0.94622 19.325 0.94622 26.93s0 9.9343-6.4415 11.098c-6.4415 1.1641-19.324 1.1641-31.197 1.1641h-29.09c-6.3558 0-8.2055 0-9.1305-1.2499-0.92498-1.2499-0.92498-3.7499-0.92498-7.6242s0-9.1228 1.3121-11.747c1.3122-2.6244 3.9361-2.6244 6.5598-2.6244" stroke="#000" stroke-width="15.486"/>
  <g stroke="#30f1ff" stroke-width="15.875">
   <path d="m65.511 173.32-39.715 24.338"/>
   <path d="m54.199 138.51-46.436 3.6546"/>
   <path d="m59.925 102.36-43.034-17.825"/>
   <path d="m81.44 72.742-30.251-35.419"/>
   <path d="m114.05 56.124-10.874-45.292"/>
   <path d="m150.66 56.123 10.874-45.292"/>
  </g>
  <path d="m156.24 82.004c-23.553-1e-6 -47.107-2e-6 -58.883 10.917s-11.777 32.75-11.777 48.344c0 15.594 0 24.948 7.7974 29.625 7.7974 4.6771 23.391 4.6771 38.986 4.6771 15.594 0 31.188 0 38.985-3.9054s7.7969-11.716 7.7969-19.513 0-15.58-7.7971-19.471c-7.7971-3.8916-23.391-3.8916-38.985-3.8916-15.594 0-31.188 0-38.985 3.627-7.7972 3.627-7.7972 10.881-7.7972 18.134" stroke="#000" stroke-width="15.875"/>
  <g stroke="#30f1ff" stroke-width="15.875">
   <path d="m65.511 173.32-39.715 24.338"/>
   <path d="m54.199 138.51-46.436 3.6546"/>
   <path d="m59.925 102.36-43.034-17.825"/>
   <path d="m81.44 72.742-30.251-35.419"/>
   <path d="m114.05 56.124-10.874-45.292"/>
   <path d="m150.66 56.123 10.874-45.292"/>
   <path d="m183.27 72.741 30.251-35.419"/>
  </g>
  <path d="m99.351 85.576h54.46c10.98 0 11.201 0 3.1747 16.52-8.026 16.52-24.298 49.56-40.569 82.6" stroke="#000" stroke-width="15.875"/>
 </g>
 <g fill="none">
  <g stroke="#30f1ff" stroke-linecap="round" stroke-width="15.875">
   <path d="m65.511 173.32-39.715 24.338"/>
   <path d="m54.199 138.51-46.436 3.6546"/>
   <path d="m59.925 102.36-43.034-17.825"/>
   <path d="m81.44 72.742-30.251-35.419"/>
   <path d="m114.05 56.124-10.874-45.292"/>
   <path d="m150.66 56.123 10.874-45.292"/>
   <path d="m183.27 72.741 30.251-35.419"/>
   <path d="m204.79 102.35 43.034-17.825"/>
  </g>
  <path d="m132.36 85.576c-11.046 0-22.093 0-27.617 2.2739-5.5235 2.2739-5.5235 6.8214-5.5235 11.322s0 8.9545 5.5236 11.181c5.5236 2.2268 16.57 2.2268 27.617 2.2268s22.092 0 27.615-2.2265c5.5229-2.2265 5.5229-6.6797 5.5229-11.18s0-9.0487-5.523-11.323c-5.523-2.2742-16.569-2.2742-27.615-2.2742z" stroke="#000" stroke-width="15.875"/>
  <path d="m132.36 120.52c-15.594 0-31.188 0-38.985 5.2478-7.7972 5.2478-7.7972 15.743-7.7972 22.911 1e-6 7.1687 1e-6 11.011 7.7974 14.255 7.7974 3.244 23.391 5.8897 38.985 5.9338 15.594 0.0441 31.188-2.5135 38.985-5.7354s7.7967-7.1082 7.7967-14.277 2.9e-4 -17.619-7.7966-22.889c-7.7969-5.2698-23.391-5.358-38.985-5.4462" stroke="#000" stroke-width="15.875"/>
 </g>
 <g display="none" fill="none" stroke="#30f1ff" stroke-linecap="round" stroke-width="15.875">
  <path d="m65.511 173.32-39.715 24.338"/>
  <path d="m54.199 138.51-46.436 3.6546"/>
  <path d="m59.925 102.36-43.034-17.825"/>
  <path d="m81.44 72.742-30.251-35.419"/>
  <path d="m114.05 56.124-10.874-45.292"/>
  <path d="m150.66 56.123 10.874-45.292"/>
  <path d="m183.27 72.741 30.251-35.419"/>
  <path d="m204.79 102.35 43.034-17.825"/>
  <path d="m210.52 138.51 46.436 3.6546"/>
  <path d="m65.511 173.32-39.715 24.338"/>
  <path d="m54.199 138.51-46.436 3.6546"/>
  <path d="m59.925 102.36-43.034-17.825"/>
  <path d="m81.44 72.742-30.251-35.419"/>
  <path d="m114.05 56.124-10.874-45.292"/>
  <path d="m150.66 56.123 10.874-45.292"/>
  <path d="m183.27 72.741 30.251-35.419"/>
  <path d="m204.79 102.35 43.034-17.825"/>
  <path d="m210.52 138.51 46.436 3.6546"/>
  <path d="m199.21 173.32 39.715 24.338"/>
 </g>
</svg>
