<?xml version="1.0" encoding="UTF-8" standalone="no"?>
<!-- Created with Inkscape (http://www.inkscape.org/) -->

<svg
   width="1000"
   height="1000"
   viewBox="0 0 264.58333 264.58334"
   version="1.1"
   id="svg5"
   inkscape:version="1.1 (c68e22c387, 2021-05-23)"
   sodipodi:docname="logo5.svg"
   xmlns:inkscape="http://www.inkscape.org/namespaces/inkscape"
   xmlns:sodipodi="http://sodipodi.sourceforge.net/DTD/sodipodi-0.dtd"
   xmlns="http://www.w3.org/2000/svg"
   xmlns:svg="http://www.w3.org/2000/svg">
  <sodipodi:namedview
     id="namedview7"
     pagecolor="#505050"
     bordercolor="#ffffff"
     borderopacity="1"
     inkscape:pageshadow="0"
     inkscape:pageopacity="0"
     inkscape:pagecheckerboard="1"
     inkscape:document-units="px"
     showgrid="false"
     units="px"
     width="1000px"
     inkscape:zoom="0.81134749"
     inkscape:cx="327.84966"
     inkscape:cy="592.22467"
     inkscape:window-width="3440"
     inkscape:window-height="1387"
     inkscape:window-x="-8"
     inkscape:window-y="1432"
     inkscape:window-maximized="1"
     inkscape:current-layer="g6293"
     showguides="true"
     inkscape:guide-bbox="true">
    <sodipodi:guide
       position="132.39806,249.25647"
       orientation="1,0"
       id="guide3508" />
  </sodipodi:namedview>
  <defs
     id="defs2">
    <inkscape:path-effect
       effect="bspline"
       id="path-effect6301"
       is_visible="true"
       lpeversion="1"
       weight="33.333333"
       steps="2"
       helper_size="0"
       apply_no_weight="true"
       apply_with_weight="true"
       only_selected="false" />
    <inkscape:path-effect
       effect="bspline"
       id="path-effect6297"
       is_visible="true"
       lpeversion="1"
       weight="33.333333"
       steps="2"
       helper_size="0"
       apply_no_weight="true"
       apply_with_weight="true"
       only_selected="false" />
    <inkscape:path-effect
       effect="bspline"
       id="path-effect3813"
       is_visible="true"
       lpeversion="1"
       weight="33.333333"
       steps="2"
       helper_size="0"
       apply_no_weight="true"
       apply_with_weight="true"
       only_selected="false" />
    <inkscape:path-effect
       effect="bspline"
       id="path-effect3809"
       is_visible="true"
       lpeversion="1"
       weight="33.333333"
       steps="2"
       helper_size="0"
       apply_no_weight="true"
       apply_with_weight="true"
       only_selected="false" />
    <inkscape:path-effect
       effect="bspline"
       id="path-effect3327"
       is_visible="true"
       lpeversion="1"
       weight="33.333333"
       steps="2"
       helper_size="0"
       apply_no_weight="true"
       apply_with_weight="true"
       only_selected="false" />
    <inkscape:path-effect
       effect="bspline"
       id="path-effect3323"
       is_visible="true"
       lpeversion="1"
       weight="33.333333"
       steps="2"
       helper_size="0"
       apply_no_weight="true"
       apply_with_weight="true"
       only_selected="false" />
    <inkscape:path-effect
       effect="bspline"
       id="path-effect1883"
       is_visible="true"
       lpeversion="1"
       weight="33.333333"
       steps="2"
       helper_size="0"
       apply_no_weight="true"
       apply_with_weight="true"
       only_selected="false" />
    <inkscape:path-effect
       effect="bspline"
       id="path-effect1442"
       is_visible="true"
       lpeversion="1"
       weight="33.333333"
       steps="2"
       helper_size="0"
       apply_no_weight="true"
       apply_with_weight="true"
       only_selected="false" />
  </defs>
  <g
     inkscape:label="Layer 1 copy 1 copy"
     inkscape:groupmode="layer"
     id="g6293"
     style="display:inline">
    <path
       id="circle6277"
       style="color:#000000;fill:#000000;stroke-width:64.9999;stroke-linecap:round;stroke-linejoin:round;-inkscape-stroke:none"
       d="M 499.81836,0 C 421.41644,0.04904181 344.12559,18.54128 274.19141,53.982422 L 404.73047,468.8125 605.45508,437.48242 V 115.37891 c 0.0155,-3.99025 0.76559,-7.94355 2.21289,-11.66211 0.0334,-0.10042 0.0672,-0.20069 0.10156,-0.30078 2.06551,-5.19101 5.43432,-9.761909 9.78125,-13.271489 0.083,-0.07334 0.16629,-0.14626 0.25,-0.21875 4.38503,-3.46348 9.58898,-5.737855 15.10938,-6.603515 0.0585,-0.02556 0.11711,-0.05095 0.17578,-0.07617 L 747.81641,65.875 C 672.29148,22.709569 586.80841,0.00294866 499.81836,0 Z m 318.43359,120.94922 -147.79883,22.3789 v 284.00977 l 159.97071,-24.96875 c 33.14034,-11.53679 56.28067,-20.54197 70.38086,-43.85352 14.48761,-23.95207 23.25966,-78.23574 20.26367,-118.02929 -0.29989,-3.98317 -0.74563,-7.70089 -1.21094,-11.38281 -24.53766,-38.05469 -54.13262,-72.59858 -87.97265,-102.6836 -4.38982,-1.82684 -9.02031,-3.64927 -13.63282,-5.4707 z m -652.00976,6.97851 C 60.534585,222.6614 0.09253929,357.87275 0,499.81836 0.02616229,510.49147 0.39418952,521.161 1.1035156,531.81055 L 144.54492,509.42188 Z m 64.79687,5.44922 -20.80664,365.79297 129.55078,-20.2207 z M 975.63867,347.0625 c -4.69125,15.93238 -10.84705,31.25298 -19.21875,45.09375 -27.30652,45.14543 -72.26791,60.38863 -106.82031,72.37109 l -0.0332,0.0137 c -0.16468,0.0571 -0.34557,0.12076 -0.50977,0.17773 -0.47343,0.11813 -0.94946,0.22558 -1.42773,0.32227 -1.37778,0.45625 -2.78458,0.81969 -4.21094,1.08789 L 670.45312,493.125 v 246.79883 c -0.003,17.94773 -14.55422,32.49523 -32.50195,32.49414 -17.94545,-0.002 -32.49287,-14.54869 -32.49609,-32.49414 V 503.27148 L 583.25,506.73633 c -0.005,72.12887 0.003,144.86279 -0.38281,196.24805 -0.43752,58.33159 -1.24061,93.15742 -4.6875,122.37695 -3.44689,29.21945 -10.30063,55.62339 -26.9375,78.50586 -16.63658,22.88201 -40.19719,40.18884 -66.50977,51.46679 -26.31277,11.27808 -55.96519,15.54961 -118.7539,16.43946 -8.73616,0.12381 -19.66791,0.0722 -29.73047,0.0898 52.59553,18.30506 107.88046,27.69151 163.57031,27.77149 132.55947,-2.8e-4 259.68956,-52.65945 353.42326,-146.39315 93.7337,-93.7337 146.39287,-220.86379 146.39315,-353.42326 -0.0262,-51.8551 -8.12176,-103.3903 -23.9961,-152.75586 z M 583.25,506.73633 424.46289,531.51953 566.83223,963.42164 c 2.67744,-24.0565 60.01989,-112.33745 16.03496,-260.43726 5.96213,-46.3245 0.37261,-128.15454 0.38281,-196.24805 z m -223.73438,34.91992 -153.05859,23.88867 -18.4707,324.71485 c 6.57326,5.24583 13.27786,10.32492 20.10742,15.23242 94.34946,81.18214 193.25193,77.02006 232.15427,76.46872 60.36426,-0.85549 34.4851,-0.44157 50.92049,-7.48604 3.48112,-1.49206 -25.20064,-82.17381 -21.89898,-84.03932 z M 140.76953,575.79883 9.6308594,596.26562 C 26.849798,683.64623 67.103953,764.83895 126.22852,831.44336 Z"
       transform="scale(0.26458333)"
       sodipodi:nodetypes="cccccccccccccccccsscccccccccccccscccccccccccsssssccscccccscccccssccccccc" />
  </g>
</svg>
