<?xml version="1.0" encoding="UTF-8" standalone="no"?>
<!-- Created with Inkscape (http://www.inkscape.org/) -->

<svg
   width="1000"
   height="1000"
   viewBox="0 0 264.58333 264.58334"
   version="1.1"
   id="svg5"
   inkscape:version="1.1 (c68e22c387, 2021-05-23)"
   sodipodi:docname="logo4.svg"
   xmlns:inkscape="http://www.inkscape.org/namespaces/inkscape"
   xmlns:sodipodi="http://sodipodi.sourceforge.net/DTD/sodipodi-0.dtd"
   xmlns="http://www.w3.org/2000/svg"
   xmlns:svg="http://www.w3.org/2000/svg">
  <sodipodi:namedview
     id="namedview7"
     pagecolor="#505050"
     bordercolor="#ffffff"
     borderopacity="1"
     inkscape:pageshadow="0"
     inkscape:pageopacity="0"
     inkscape:pagecheckerboard="1"
     inkscape:document-units="px"
     showgrid="false"
     units="px"
     width="1000px"
     inkscape:zoom="0.81134749"
     inkscape:cx="327.84966"
     inkscape:cy="592.22467"
     inkscape:window-width="3440"
     inkscape:window-height="1387"
     inkscape:window-x="-8"
     inkscape:window-y="1432"
     inkscape:window-maximized="1"
     inkscape:current-layer="g6293"
     showguides="true"
     inkscape:guide-bbox="true">
    <sodipodi:guide
       position="132.39806,249.25647"
       orientation="1,0"
       id="guide3508" />
  </sodipodi:namedview>
  <defs
     id="defs2">
    <inkscape:path-effect
       effect="bspline"
       id="path-effect6301"
       is_visible="true"
       lpeversion="1"
       weight="33.333333"
       steps="2"
       helper_size="0"
       apply_no_weight="true"
       apply_with_weight="true"
       only_selected="false" />
    <inkscape:path-effect
       effect="bspline"
       id="path-effect6297"
       is_visible="true"
       lpeversion="1"
       weight="33.333333"
       steps="2"
       helper_size="0"
       apply_no_weight="true"
       apply_with_weight="true"
       only_selected="false" />
    <inkscape:path-effect
       effect="bspline"
       id="path-effect3813"
       is_visible="true"
       lpeversion="1"
       weight="33.333333"
       steps="2"
       helper_size="0"
       apply_no_weight="true"
       apply_with_weight="true"
       only_selected="false" />
    <inkscape:path-effect
       effect="bspline"
       id="path-effect3809"
       is_visible="true"
       lpeversion="1"
       weight="33.333333"
       steps="2"
       helper_size="0"
       apply_no_weight="true"
       apply_with_weight="true"
       only_selected="false" />
    <inkscape:path-effect
       effect="bspline"
       id="path-effect3327"
       is_visible="true"
       lpeversion="1"
       weight="33.333333"
       steps="2"
       helper_size="0"
       apply_no_weight="true"
       apply_with_weight="true"
       only_selected="false" />
    <inkscape:path-effect
       effect="bspline"
       id="path-effect3323"
       is_visible="true"
       lpeversion="1"
       weight="33.333333"
       steps="2"
       helper_size="0"
       apply_no_weight="true"
       apply_with_weight="true"
       only_selected="false" />
    <inkscape:path-effect
       effect="bspline"
       id="path-effect1883"
       is_visible="true"
       lpeversion="1"
       weight="33.333333"
       steps="2"
       helper_size="0"
       apply_no_weight="true"
       apply_with_weight="true"
       only_selected="false" />
    <inkscape:path-effect
       effect="bspline"
       id="path-effect1442"
       is_visible="true"
       lpeversion="1"
       weight="33.333333"
       steps="2"
       helper_size="0"
       apply_no_weight="true"
       apply_with_weight="true"
       only_selected="false" />
  </defs>
  <g
     inkscape:label="Layer 1"
     inkscape:groupmode="layer"
     id="layer1"
     style="display:none"
     sodipodi:insensitive="true">
    <circle
       style="fill:#000000;stroke:none;stroke-width:17.1979;stroke-linecap:round;stroke-linejoin:round;stroke-miterlimit:4;stroke-dasharray:none;stroke-opacity:1"
       id="path3265"
       cx="132.24339"
       cy="132.24339"
       r="132.24339" />
    <path
       style="fill:none;stroke:#ffffff;stroke-width:17.1979;stroke-linecap:round;stroke-linejoin:round;stroke-miterlimit:4;stroke-dasharray:none;stroke-opacity:1"
       d="M 10.376553,145.73292 221.82763,114.83385"
       id="path857" />
    <path
       style="fill:none;stroke:#ffffff;stroke-width:17.1979;stroke-linecap:round;stroke-linejoin:round;stroke-miterlimit:4;stroke-dasharray:none;stroke-opacity:1"
       d="M 168.79192,122.44333 V 49.115681"
       id="path1090" />
    <path
       style="fill:none;stroke:#ffffff;stroke-width:17.1979;stroke-linecap:round;stroke-linejoin:round;stroke-miterlimit:4;stroke-dasharray:none;stroke-opacity:1"
       d="M 168.79192,195.77097 V 122.44333"
       id="path1090-6" />
    <path
       style="fill:none;stroke:#ffffff;stroke-width:17.1979;stroke-linecap:round;stroke-linejoin:round;stroke-miterlimit:4;stroke-dasharray:none;stroke-opacity:1"
       d="m 168.79192,49.115681 50.03804,-7.37888"
       id="path1339" />
    <path
       style="fill:none;stroke:#ffffff;stroke-width:17.1979;stroke-linecap:round;stroke-linejoin:round;stroke-miterlimit:4;stroke-dasharray:none;stroke-opacity:1"
       d="m 218.82996,41.736801 c 9.22389,0.691791 18.4473,1.383546 24.7117,6.841101 6.2644,5.457555 9.56946,15.680178 10.14584,25.710884 0.57638,10.030705 -1.57571,19.868822 -7.34048,26.594374 -5.76478,6.72556 -15.14192,10.33806 -24.51939,13.95069"
       id="path1440"
       inkscape:path-effect="#path-effect1442"
       inkscape:original-d="m 218.82996,41.736801 c 9.22387,0.692034 18.44728,1.38379 27.67081,2.075309 3.30545,10.223296 6.61051,20.445918 9.91537,30.668479 -2.15195,9.83897 -4.30404,19.677086 -6.45652,29.515531 -9.37726,3.61291 -18.7544,7.22542 -28.13199,10.83773"
       sodipodi:nodetypes="ccccc" />
    <path
       style="fill:none;stroke:#ffffff;stroke-width:17.1979;stroke-linecap:round;stroke-linejoin:round;stroke-miterlimit:4;stroke-dasharray:none;stroke-opacity:1"
       d="M 40.122671,253.18789 58.800465,17.524844 126.13276,242.58074"
       id="path1774"
       sodipodi:nodetypes="ccc" />
    <path
       style="fill:none;stroke:#ffffff;stroke-width:17.1979;stroke-linecap:round;stroke-linejoin:round;stroke-miterlimit:4;stroke-dasharray:none;stroke-opacity:1"
       d="m 145.73292,127.05513 c 0,21.75259 0,43.50492 -0.1153,58.87768 -0.1153,15.37275 -0.34588,24.3654 -1.18011,31.4372 -0.83423,7.0718 -2.27199,12.22209 -5.5431,16.72119 -3.2711,4.4991 -8.37531,8.34689 -14.03054,10.77081 -5.65523,2.42392 -11.86095,3.42367 -19.61986,3.65457 -7.758909,0.2309 -17.070331,-0.30713 -26.382211,-0.84519"
       id="path1881"
       inkscape:path-effect="#path-effect1883"
       inkscape:original-d="m 145.73292,127.05513 c 2.6e-4,21.75259 2.6e-4,43.50492 0,65.25698 -0.23033,8.99346 -0.46091,17.98611 -0.69177,26.97904 -1.43755,5.15075 -2.87531,10.30104 -4.31337,15.45116 -5.10425,3.84829 -10.20845,7.69608 -15.31324,11.54384 -6.20585,1.00008 -12.41157,1.99983 -18.61793,2.99937 -9.311523,-0.53779 -18.622945,-1.07582 -27.934811,-1.61413"
       sodipodi:nodetypes="ccccccc" />
  </g>
  <g
     inkscape:label="Layer 1 copy"
     inkscape:groupmode="layer"
     id="g3319"
     style="display:none">
    <path
       id="circle3303"
       style="color:#000000;fill:#000000;stroke-width:14.319;stroke-linecap:round;stroke-linejoin:round;-inkscape-stroke:none"
       d="M 132.24356,44.274256 A 110.10624,110.10624 0 0 0 78.419382,58.368699 l 26.671358,89.148921 50.42384,-7.36819 V 85.167846 a 7.1595115,7.1595115 0 0 1 0.49953,-2.604792 7.1595121,7.1595121 0 0 1 0.0164,-0.04819 7.1595115,7.1595115 0 0 1 2.17883,-2.933079 7.1595121,7.1595121 0 0 1 0.0379,-0.0327 7.1595115,7.1595115 0 0 1 3.35301,-1.450834 7.1595121,7.1595121 0 0 1 0.0288,-0.01247 l 41.66289,-6.143678 a 7.1595121,7.1595121 0 0 1 1.06919,0.03958 7.1595123,7.1595123 0 0 1 0.50986,-0.09638 c 0.0987,0.0074 0.21095,0.01679 0.31022,0.0241 A 110.10624,110.10624 0 0 0 132.24356,44.274256 Z M 63.130107,68.738384 A 110.10624,110.10624 0 0 0 22.137128,154.38069 110.10624,110.10624 0 0 0 50.5007,228.08846 l 4.660572,-58.80401 -23.350188,3.41239 a 7.1595117,7.1595117 0 0 1 -8.119428,-6.04945 7.1595117,7.1595117 0 0 1 6.049449,-8.11943 l 26.580575,-3.88395 z m 141.394053,17.495215 -34.69097,5.115787 v 46.707684 l 35.11908,-5.13213 c 7.49176,-2.91108 13.82791,-5.77866 16.85843,-9.31426 3.12758,-3.64884 4.80622,-10.00821 4.40026,-17.07313 -0.40596,-7.064804 -3.18639,-13.965003 -6.00384,-16.419566 -2.72309,-2.372363 -8.37582,-3.303958 -15.68296,-3.884385 z M 75.207494,97.591592 70.854127,152.52025 90.770414,149.60997 Z M 238.02116,123.83183 c -1.24734,3.26606 -2.98363,6.34844 -5.33952,9.09698 -6.47198,7.55061 -15.46935,10.6292 -23.27705,13.63708 a 7.1595123,7.1595123 0 0 1 -0.007,8.8e-4 7.1595117,7.1595117 0 0 1 -1.5313,0.40229 l -38.03279,5.55807 v 54.74709 a 7.1595126,7.1595126 0 0 1 -7.15995,7.15823 7.1595126,7.1595126 0 0 1 -7.15866,-7.15823 v -52.65474 l -4.89033,0.71467 c -8.8e-4,16.11147 4.4e-4,32.33338 -0.0856,43.80257 -0.0964,12.85003 -0.2733,20.52192 -1.03262,26.95878 -0.75933,6.43683 -2.26916,12.25343 -5.93414,17.29428 -3.66492,5.04074 -8.85516,8.85331 -14.65163,11.33777 -5.79652,2.48448 -11.98265,3.41133 -18.94347,3.61848 -4.60096,0.13692 -9.63008,-0.0509 -14.731657,-0.30419 a 110.10624,110.10624 0 0 0 36.998447,6.44486 110.10624,110.10624 0 0 0 110.10601,-110.10601 110.10624,110.10624 0 0 0 -4.32841,-30.54886 z m -101.71982,33.5951 -27.06247,3.95494 22.20441,74.21763 c 0.1734,-0.21035 0.3949,-0.4209 0.54686,-0.6299 1.78208,-2.45108 2.66681,-5.21167 3.29665,-10.55083 0.62983,-5.33913 0.83762,-12.64044 0.93323,-25.38918 0.0812,-10.83094 0.0794,-26.31947 0.0813,-41.60266 z m -41.382794,6.04773 -25.224827,3.68603 -5.822703,73.46983 a 110.10624,110.10624 0 0 0 17.134225,11.15663 7.1595119,7.1595119 0 0 1 -0.354964,-1.71372 7.1595119,7.1595119 0 0 1 7.560091,-6.73528 c 7.753094,0.44799 15.381142,0.87308 21.340442,0.69573 3.64854,-0.10858 6.57101,-0.46035 9.15636,-1.04726 z" />
  </g>
  <g
     inkscape:label="Layer 1 copy 1"
     inkscape:groupmode="layer"
     id="g3805"
     style="display:none"
     sodipodi:insensitive="true">
    <circle
       style="fill:#000000;stroke:none;stroke-width:17.1979;stroke-linecap:round;stroke-linejoin:round;stroke-miterlimit:4;stroke-dasharray:none;stroke-opacity:1"
       id="circle3789"
       cx="132.24339"
       cy="132.24339"
       r="132.24339" />
    <path
       style="fill:none;stroke:#ffffff;stroke-width:17.1979;stroke-linecap:round;stroke-linejoin:round;stroke-miterlimit:4;stroke-dasharray:none;stroke-opacity:1"
       d="M -24.190428,153.2333 221.82763,114.83385"
       id="path3791"
       sodipodi:nodetypes="cc" />
    <path
       style="fill:none;stroke:#ffffff;stroke-width:17.1979;stroke-linecap:round;stroke-linejoin:round;stroke-miterlimit:4;stroke-dasharray:none;stroke-opacity:1"
       d="m 168.79192,122.44333 0,-91.915554"
       id="path3793"
       sodipodi:nodetypes="cc" />
    <path
       style="fill:none;stroke:#ffffff;stroke-width:17.1979;stroke-linecap:round;stroke-linejoin:round;stroke-miterlimit:4;stroke-dasharray:none;stroke-opacity:1"
       d="M 168.79192,195.77097 V 122.44333"
       id="path3795" />
    <path
       style="fill:none;stroke:#ffffff;stroke-width:17.1979;stroke-linecap:round;stroke-linejoin:round;stroke-miterlimit:4;stroke-dasharray:none;stroke-opacity:1"
       d="m 168.79192,30.527776 48.73363,-7.37888"
       id="path3797"
       sodipodi:nodetypes="cc" />
    <path
       style="fill:none;stroke:#ffffff;stroke-width:17.1979;stroke-linecap:round;stroke-linejoin:round;stroke-miterlimit:4;stroke-dasharray:none;stroke-opacity:1"
       d="m 217.52555,23.148896 c 8.78912,3.409423 17.57773,6.818651 23.84213,12.928382 6.2644,6.109731 10.00417,14.919081 10.90669,26.906563 0.90251,11.987482 -1.03218,27.151743 -6.57955,36.323109 -5.54737,9.17137 -14.70711,12.34907 -23.86719,15.5269"
       id="path3799"
       inkscape:path-effect="#path-effect3809"
       inkscape:original-d="m 217.52555,23.148896 c 8.78906,3.409566 17.57767,6.818793 26.36639,10.227899 3.74027,8.810159 7.48004,17.61951 11.21978,26.429132 -1.93454,15.165434 -3.86924,30.329694 -5.80431,45.494603 -9.15985,3.17811 -18.31959,6.35581 -27.47978,9.53332"
       sodipodi:nodetypes="ccccc" />
    <path
       style="fill:none;stroke:#ffffff;stroke-width:17.1979;stroke-linecap:round;stroke-linejoin:round;stroke-miterlimit:4;stroke-dasharray:none;stroke-opacity:1"
       d="M 40.122671,253.18789 55.213325,-12.150583 132.39806,233.12374"
       id="path3801"
       sodipodi:nodetypes="ccc" />
    <path
       style="fill:none;stroke:#ffffff;stroke-width:17.1979;stroke-linecap:round;stroke-linejoin:round;stroke-miterlimit:4;stroke-dasharray:none;stroke-opacity:1"
       d="m 145.73292,127.05513 c 0,21.75259 0,43.50492 -0.1153,58.87768 -0.1153,15.37275 -0.34588,24.3654 -1.18011,31.4372 -0.83423,7.0718 -2.27199,12.22209 -5.5431,16.72119 -3.2711,4.4991 -8.37531,8.34689 -14.03054,10.77081 -5.65523,2.42392 -11.86095,3.42367 -28.153076,3.65456 -16.292127,0.2309 -42.669304,-0.30713 -69.047259,-0.84518"
       id="path3803"
       inkscape:path-effect="#path-effect3813"
       inkscape:original-d="m 145.73292,127.05513 c 2.6e-4,21.75259 2.6e-4,43.50492 0,65.25698 -0.23033,8.99346 -0.46091,17.98611 -0.69177,26.97904 -1.43755,5.15075 -2.87531,10.30104 -4.31337,15.45116 -5.10425,3.84829 -10.20845,7.69608 -15.31324,11.54384 -6.20585,1.00008 -12.41157,1.99983 -18.61793,2.99937 -26.377948,-0.53779 -52.755125,-1.07582 -79.133075,-1.61413"
       sodipodi:nodetypes="ccccccc" />
  </g>
  <g
     inkscape:label="Layer 1 copy 1 copy"
     inkscape:groupmode="layer"
     id="g6293"
     style="display:inline">
    <path
       id="circle6277"
       style="color:#000000;fill:#000000;stroke-width:64.9999;stroke-linecap:round;stroke-linejoin:round;-inkscape-stroke:none"
       d="M 499.81836 0 A 499.81747 499.81747 0 0 0 274.19141 53.982422 L 404.73047 468.8125 L 605.45508 437.48242 L 605.45508 115.37891 A 32.499965 32.499965 0 0 1 607.66797 103.7168 A 32.499966 32.499966 0 0 1 607.76953 103.41602 A 32.499965 32.499965 0 0 1 617.55078 90.144531 A 32.499966 32.499966 0 0 1 617.80078 89.925781 A 32.499965 32.499965 0 0 1 632.91016 83.322266 A 32.499966 32.499966 0 0 1 633.08594 83.246094 L 747.81641 65.875 A 499.81747 499.81747 0 0 0 499.81836 0 z M 818.25195 120.94922 L 670.45312 143.32812 L 670.45312 427.33789 L 830.42383 402.36914 C 863.56417 390.83235 886.7045 381.82717 900.80469 358.51562 C 915.2923 334.56355 924.06435 280.27988 921.06836 240.48633 C 920.76847 236.50316 920.32273 232.78544 919.85742 229.10352 A 499.81747 499.81747 0 0 0 831.88477 126.41992 C 827.49495 124.59308 822.86446 122.77065 818.25195 120.94922 z M 166.24219 127.92773 A 499.81747 499.81747 0 0 0 0 499.81836 A 499.81747 499.81747 0 0 0 1.1035156 531.81055 L 144.54492 509.42188 L 166.24219 127.92773 z M 231.03906 133.37695 L 210.23242 499.16992 L 339.7832 478.94922 L 231.03906 133.37695 z M 975.63867 347.0625 C 970.94742 362.99488 964.79162 378.31548 956.41992 392.15625 C 929.1134 437.30168 884.15201 452.54488 849.59961 464.52734 A 32.499968 32.499968 0 0 1 849.56641 464.54102 C 849.40173 464.59813 849.22084 464.66178 849.05664 464.71875 A 32.499967 32.499967 0 0 1 847.62891 465.04102 A 32.499968 32.499968 0 0 1 843.41797 466.12891 L 670.45312 493.125 L 670.45312 739.92383 A 32.49997 32.49997 0 0 1 637.95117 772.41797 A 32.49997 32.49997 0 0 1 605.45508 739.92383 L 605.45508 503.27148 L 583.25 506.73633 C 583.2449 578.8652 583.25257 651.59912 582.86719 702.98438 C 582.42967 761.31597 581.62658 796.1418 578.17969 825.36133 C 574.7328 854.58078 567.87906 880.98472 551.24219 903.86719 C 534.60561 926.7492 511.045 944.05603 484.73242 955.33398 C 458.41965 966.61206 428.76723 970.88359 365.97852 971.77344 C 357.24236 971.89725 346.31061 971.84566 336.24805 971.86328 A 499.81747 499.81747 0 0 0 499.81836 999.63477 A 499.81747 499.81747 0 0 0 999.63477 499.81836 A 499.81747 499.81747 0 0 0 975.63867 347.0625 z M 518.23242 516.88477 L 424.46289 531.51953 L 513.83398 815.51953 C 516.51142 791.46303 517.44714 758.7638 517.86914 702.49805 C 518.2316 654.17503 518.22222 584.97828 518.23242 516.88477 z M 359.51562 541.65625 L 206.45703 565.54492 L 187.98633 890.25977 A 499.81747 499.81747 0 0 0 208.09375 905.49219 C 269.16524 906.56069 326.16211 907.32868 365.06445 906.77734 C 425.42871 905.92185 442.68766 902.63822 459.12305 895.59375 C 462.60417 894.10169 465.96787 892.30106 469.26953 890.43555 L 359.51562 541.65625 z M 140.76953 575.79883 L 9.6308594 596.26562 A 499.81747 499.81747 0 0 0 126.22852 831.44336 L 140.76953 575.79883 z "
       transform="scale(0.26458333)" />
  </g>
</svg>
