<?xml version="1.0" encoding="UTF-8" standalone="no"?>
<!-- Created with Inkscape (http://www.inkscape.org/) -->

<svg
   width="1000"
   height="1000"
   viewBox="0 0 264.58333 264.58334"
   version="1.1"
   id="svg5"
   inkscape:version="1.1 (c68e22c387, 2021-05-23)"
   sodipodi:docname="logo3.svg"
   xmlns:inkscape="http://www.inkscape.org/namespaces/inkscape"
   xmlns:sodipodi="http://sodipodi.sourceforge.net/DTD/sodipodi-0.dtd"
   xmlns="http://www.w3.org/2000/svg"
   xmlns:svg="http://www.w3.org/2000/svg">
  <sodipodi:namedview
     id="namedview7"
     pagecolor="#505050"
     bordercolor="#ffffff"
     borderopacity="1"
     inkscape:pageshadow="0"
     inkscape:pageopacity="0"
     inkscape:pagecheckerboard="1"
     inkscape:document-units="px"
     showgrid="false"
     units="px"
     inkscape:zoom="0.88940775"
     inkscape:cx="240.60955"
     inkscape:cy="505.39249"
     inkscape:window-width="3440"
     inkscape:window-height="1387"
     inkscape:window-x="-8"
     inkscape:window-y="1432"
     inkscape:window-maximized="1"
     inkscape:current-layer="layer1" />
  <defs
     id="defs2">
    <inkscape:path-effect
       effect="bspline"
       id="path-effect1045"
       is_visible="true"
       lpeversion="1"
       weight="33.333333"
       steps="2"
       helper_size="0"
       apply_no_weight="true"
       apply_with_weight="true"
       only_selected="false" />
    <inkscape:path-effect
       effect="bspline"
       id="path-effect1659"
       is_visible="true"
       lpeversion="1"
       weight="33.333333"
       steps="2"
       helper_size="0"
       apply_no_weight="true"
       apply_with_weight="true"
       only_selected="false" />
  </defs>
  <g
     inkscape:label="Layer 1"
     inkscape:groupmode="layer"
     id="layer1">
    <path
       id="path870"
       style="color:#000000;fill:#000000;stroke-width:99.9999;stroke-linecap:round;stroke-linejoin:round;-inkscape-stroke:none"
       d="M 499.2793 1.4902344 A 498.44831 497.78965 0 0 0 291.13281 47.083984 A 32.503215 32.503215 0 0 1 307.20508 68.333984 L 389.83398 443.01367 L 616.24805 414.86914 L 616.24805 191.2793 L 796.94141 171.20898 A 32.499995 32.499995 0 0 1 797.27734 171.19531 A 32.499996 32.499996 0 0 1 797.36133 171.16406 C 816.47561 169.29012 836.63558 167.17347 856.79297 167.8418 C 861.8349 168.00896 866.95969 168.32018 872.10742 168.91406 A 498.44831 497.78965 0 0 0 499.2793 1.4902344 z M 243.03516 72.367188 A 498.44831 497.78965 0 0 0 1.0742188 491.3418 L 181.32031 468.93555 L 243.03516 72.367188 z M 849.29883 232.72656 C 836.3782 232.75847 820.47603 234.20872 803.77539 235.8457 L 681.24414 249.46289 L 681.24414 406.78906 L 812.20703 390.50977 C 812.22421 390.5076 812.24064 390.50412 812.25781 390.50195 L 812.26562 390.50195 C 850.84198 385.62776 882.40765 376.44284 887.48047 370.69727 C 892.55554 364.94912 895.88356 336.61772 893.11914 301.23242 C 891.73693 283.5398 890.02916 267.20751 887.08203 255.70117 C 884.13491 244.19483 880.40149 239.19331 878.47461 237.74805 C 876.54852 236.30339 868.40687 233.25896 854.64648 232.80273 C 852.9287 232.74578 851.14463 232.722 849.29883 232.72656 z M 280.98438 251.25 L 248.4043 460.5957 L 325.05078 451.06836 L 280.98438 251.25 z M 958.74023 306.50195 C 961.7156 341.05693 965.01857 381.08827 936.20898 413.71875 C 904.55589 449.56984 858.94506 450.12578 820.3418 454.99805 A 32.499996 32.499996 0 0 1 820.31641 454.99805 A 32.499997 32.499997 0 0 1 820.2832 455.00586 L 681.24414 472.29102 L 681.24414 699.3457 A 32.499999 32.499999 0 0 1 648.74219 731.83984 A 32.499999 32.499999 0 0 1 616.24805 699.3457 L 616.24805 480.36719 L 568.67383 486.28125 C 568.31207 596.70687 567.8136 705.63709 564.08789 783.16602 C 562.08644 824.81477 559.41434 858.1593 551.61914 887.0293 C 543.82394 915.89929 528.917 941.75512 504.75195 957.95508 C 472.69618 979.44496 434.20579 984.65071 394.54688 985.7793 A 498.44831 497.78965 0 0 0 499.2793 997.06836 A 498.44831 497.78965 0 0 0 997.72852 499.2793 A 498.44831 497.78965 0 0 0 958.74023 306.50195 z M 503.625 494.36719 L 403.89258 506.76562 L 454.48828 736.1875 A 32.499965 32.499965 0 0 1 429.75195 774.92773 A 32.499965 32.499965 0 0 1 391.01953 750.19141 L 339.11133 514.81836 L 238.00977 527.38672 L 186.14844 860.625 A 32.499965 32.499965 0 0 1 176.7207 878.51758 A 498.44831 497.78965 0 0 0 302.20117 956.31836 A 32.499969 32.499969 0 0 1 301.43164 953.44531 A 32.499969 32.499969 0 0 1 333.92773 920.94336 C 393.51886 920.94336 449.80295 916.53842 468.55859 903.96484 C 477.93655 897.67794 483.54321 889.79835 488.86523 870.08789 C 494.18726 850.37743 497.23019 820.28725 499.16406 780.04492 C 502.67088 707.07151 503.25242 601.77489 503.625 494.36719 z M 170.92578 535.72656 L 6.2597656 556.19531 A 32.499997 32.499997 0 0 1 4.1601562 555.9043 A 498.44831 497.78965 0 0 0 125.37891 828.4082 L 170.92578 535.72656 z "
       transform="scale(0.26458333)" />
  </g>
</svg>
