<?xml version="1.0" encoding="UTF-8" standalone="no"?>
<!-- Created with Inkscape (http://www.inkscape.org/) -->

<svg
   width="1000"
   height="1000"
   viewBox="0 0 264.58333 264.58334"
   version="1.1"
   id="svg5"
   inkscape:version="1.1 (c68e22c387, 2021-05-23)"
   sodipodi:docname="logo5.svg"
   xmlns:inkscape="http://www.inkscape.org/namespaces/inkscape"
   xmlns:sodipodi="http://sodipodi.sourceforge.net/DTD/sodipodi-0.dtd"
   xmlns="http://www.w3.org/2000/svg"
   xmlns:svg="http://www.w3.org/2000/svg">
  <sodipodi:namedview
     id="namedview7"
     pagecolor="#505050"
     bordercolor="#ffffff"
     borderopacity="1"
     inkscape:pageshadow="0"
     inkscape:pageopacity="0"
     inkscape:pagecheckerboard="1"
     inkscape:document-units="px"
     showgrid="false"
     units="px"
     width="1000px"
     inkscape:zoom="0.81134749"
     inkscape:cx="327.84966"
     inkscape:cy="592.22467"
     inkscape:window-width="3440"
     inkscape:window-height="1387"
     inkscape:window-x="-8"
     inkscape:window-y="1432"
     inkscape:window-maximized="1"
     inkscape:current-layer="g6293"
     showguides="true"
     inkscape:guide-bbox="true">
    <sodipodi:guide
       position="132.39806,249.25647"
       orientation="1,0"
       id="guide3508" />
  </sodipodi:namedview>
  <defs
     id="defs2">
    <inkscape:path-effect
       effect="bspline"
       id="path-effect6301"
       is_visible="true"
       lpeversion="1"
       weight="33.333333"
       steps="2"
       helper_size="0"
       apply_no_weight="true"
       apply_with_weight="true"
       only_selected="false" />
    <inkscape:path-effect
       effect="bspline"
       id="path-effect6297"
       is_visible="true"
       lpeversion="1"
       weight="33.333333"
       steps="2"
       helper_size="0"
       apply_no_weight="true"
       apply_with_weight="true"
       only_selected="false" />
    <inkscape:path-effect
       effect="bspline"
       id="path-effect3813"
       is_visible="true"
       lpeversion="1"
       weight="33.333333"
       steps="2"
       helper_size="0"
       apply_no_weight="true"
       apply_with_weight="true"
       only_selected="false" />
    <inkscape:path-effect
       effect="bspline"
       id="path-effect3809"
       is_visible="true"
       lpeversion="1"
       weight="33.333333"
       steps="2"
       helper_size="0"
       apply_no_weight="true"
       apply_with_weight="true"
       only_selected="false" />
    <inkscape:path-effect
       effect="bspline"
       id="path-effect3327"
       is_visible="true"
       lpeversion="1"
       weight="33.333333"
       steps="2"
       helper_size="0"
       apply_no_weight="true"
       apply_with_weight="true"
       only_selected="false" />
    <inkscape:path-effect
       effect="bspline"
       id="path-effect3323"
       is_visible="true"
       lpeversion="1"
       weight="33.333333"
       steps="2"
       helper_size="0"
       apply_no_weight="true"
       apply_with_weight="true"
       only_selected="false" />
    <inkscape:path-effect
       effect="bspline"
       id="path-effect1883"
       is_visible="true"
       lpeversion="1"
       weight="33.333333"
       steps="2"
       helper_size="0"
       apply_no_weight="true"
       apply_with_weight="true"
       only_selected="false" />
    <inkscape:path-effect
       effect="bspline"
       id="path-effect1442"
       is_visible="true"
       lpeversion="1"
       weight="33.333333"
       steps="2"
       helper_size="0"
       apply_no_weight="true"
       apply_with_weight="true"
       only_selected="false" />
  </defs>
  <g
     inkscape:label="Layer 1 copy 1 copy"
     inkscape:groupmode="layer"
     id="g6293"
     style="display:inline">
    <path
       id="circle6277"
       style="color:#000000;fill:#000000;stroke-width:64.9999;stroke-linecap:round;stroke-linejoin:round;-inkscape-stroke:none"
       d="M 499.81836 0 A 499.81747 499.81747 0 0 0 274.19141 53.982422 L 404.73047 468.8125 L 605.45508 437.48242 L 605.45508 115.37891 A 32.499965 32.499965 0 0 1 607.66797 103.7168 A 32.499966 32.499966 0 0 1 607.76953 103.41602 A 32.499965 32.499965 0 0 1 617.55078 90.144531 A 32.499966 32.499966 0 0 1 617.80078 89.925781 A 32.499965 32.499965 0 0 1 632.91016 83.322266 A 32.499966 32.499966 0 0 1 633.08594 83.246094 L 747.81641 65.875 A 499.81747 499.81747 0 0 0 499.81836 0 z M 818.25195 120.94922 L 670.45312 143.32812 L 670.45312 427.33789 L 830.42383 402.36914 C 863.56417 390.83235 886.7045 381.82717 900.80469 358.51562 C 915.2923 334.56355 924.06435 280.27988 921.06836 240.48633 C 920.76847 236.50316 920.32273 232.78544 919.85742 229.10352 A 499.81747 499.81747 0 0 0 831.88477 126.41992 C 827.49495 124.59308 822.86446 122.77065 818.25195 120.94922 z M 166.24219 127.92773 A 499.81747 499.81747 0 0 0 0 499.81836 A 499.81747 499.81747 0 0 0 1.1035156 531.81055 L 144.54492 509.42188 L 166.24219 127.92773 z M 231.03906 133.37695 L 210.23242 499.16992 L 339.7832 478.94922 L 231.03906 133.37695 z M 975.63867 347.0625 C 970.94742 362.99488 964.79162 378.31548 956.41992 392.15625 C 929.1134 437.30168 884.15201 452.54488 849.59961 464.52734 A 32.499968 32.499968 0 0 1 849.56641 464.54102 C 849.40173 464.59813 849.22084 464.66178 849.05664 464.71875 A 32.499967 32.499967 0 0 1 847.62891 465.04102 A 32.499968 32.499968 0 0 1 843.41797 466.12891 L 670.45312 493.125 L 670.45312 739.92383 A 32.49997 32.49997 0 0 1 637.95117 772.41797 A 32.49997 32.49997 0 0 1 605.45508 739.92383 L 605.45508 503.27148 L 583.25 506.73633 C 583.2449 578.8652 583.25257 651.59912 582.86719 702.98438 C 582.42967 761.31597 581.62658 796.1418 578.17969 825.36133 C 574.7328 854.58078 567.87906 880.98472 551.24219 903.86719 C 534.60561 926.7492 511.045 944.05603 484.73242 955.33398 C 458.41965 966.61206 428.76723 970.88359 365.97852 971.77344 C 357.24236 971.89725 346.31061 971.84566 336.24805 971.86328 A 499.81747 499.81747 0 0 0 499.81836 999.63477 A 499.81747 499.81747 0 0 0 999.63477 499.81836 A 499.81747 499.81747 0 0 0 975.63867 347.0625 z M 518.23242 516.88477 L 424.46289 531.51953 L 513.83398 815.51953 C 516.51142 791.46303 517.44714 758.7638 517.86914 702.49805 C 518.2316 654.17503 518.22222 584.97828 518.23242 516.88477 z M 359.51562 541.65625 L 206.45703 565.54492 L 187.98633 890.25977 A 499.81747 499.81747 0 0 0 208.09375 905.49219 C 269.16524 906.56069 326.16211 907.32868 365.06445 906.77734 C 425.42871 905.92185 442.68766 902.63822 459.12305 895.59375 C 462.60417 894.10169 465.96787 892.30106 469.26953 890.43555 L 359.51562 541.65625 z M 140.76953 575.79883 L 9.6308594 596.26562 A 499.81747 499.81747 0 0 0 126.22852 831.44336 L 140.76953 575.79883 z "
       transform="scale(0.26458333)" />
  </g>
</svg>
