<?xml version="1.0" encoding="UTF-8"?>
<svg width="1e3" height="1e3" version="1.1" viewBox="0 0 264.58 264.58" xmlns="http://www.w3.org/2000/svg">
 <g stroke-linecap="round">
  <path transform="scale(.26458)" d="m500.25 0a500.25 500.25 0 0 0-500.25 500.25 500.25 500.25 0 0 0 500.25 500.25 500.25 500.25 0 0 0 500.25-500.25 500.25 500.25 0 0 0-500.25-500.25zm0 250.2a250.05 250.05 0 0 1 250.05 250.05 250.05 250.05 0 0 1-250.05 250.05 250.05 250.05 0 0 1-250.05-250.05 250.05 250.05 0 0 1 250.05-250.05z" color="#000000" stroke-linejoin="round" stroke-width="100" style="-inkscape-stroke:none"/>
  <g fill="none">
   <g stroke="#656565" stroke-linejoin="round" stroke-width="15.346">
    <path d="m65.511 173.32-39.715 24.338"/>
    <path d="m54.199 138.51-46.436 3.6546"/>
    <path d="m59.925 102.36-43.034-17.825"/>
    <path d="m81.44 72.742-30.251-35.419"/>
    <path d="m114.05 56.124-10.874-45.292"/>
    <path d="m150.66 56.123 10.874-45.292"/>
    <path d="m183.27 72.741 30.251-35.419"/>
    <path d="m204.79 102.35 43.034-17.825"/>
    <path d="m210.52 138.51 46.436 3.6546"/>
    <path d="m199.21 173.32 39.715 24.338"/>
   </g>
   <path d="m65.511 173.32-39.715 24.338" stroke="#30f1ff" stroke-width="15.875"/>
   <path d="m132.36 85.576v93.564" stroke="#000" stroke-width="15.875"/>
  </g>
 </g>
 <g display="none" fill="none" stroke="#30f1ff" stroke-linecap="round" stroke-width="15.875">
  <path d="m65.511 173.32-39.715 24.338"/>
  <path d="m54.199 138.51-46.436 3.6546"/>
  <path d="m65.511 173.32-39.715 24.338"/>
  <path d="m54.199 138.51-46.436 3.6546"/>
  <path d="m59.925 102.36-43.034-17.825"/>
  <path d="m65.511 173.32-39.715 24.338"/>
  <path d="m54.199 138.51-46.436 3.6546"/>
  <path d="m59.925 102.36-43.034-17.825"/>
  <path d="m81.44 72.742-30.251-35.419"/>
  <path d="m65.511 173.32-39.715 24.338"/>
  <path d="m54.199 138.51-46.436 3.6546"/>
  <path d="m59.925 102.36-43.034-17.825"/>
  <path d="m81.44 72.742-30.251-35.419"/>
  <path d="m114.05 56.124-10.874-45.292"/>
  <path d="m65.511 173.32-39.715 24.338"/>
  <path d="m54.199 138.51-46.436 3.6546"/>
  <path d="m59.925 102.36-43.034-17.825"/>
  <path d="m81.44 72.742-30.251-35.419"/>
  <path d="m114.05 56.124-10.874-45.292"/>
  <path d="m150.66 56.123 10.874-45.292"/>
  <path d="m65.511 173.32-39.715 24.338"/>
  <path d="m54.199 138.51-46.436 3.6546"/>
  <path d="m59.925 102.36-43.034-17.825"/>
  <path d="m81.44 72.742-30.251-35.419"/>
  <path d="m114.05 56.124-10.874-45.292"/>
  <path d="m150.66 56.123 10.874-45.292"/>
  <path d="m183.27 72.741 30.251-35.419"/>
  <path d="m65.511 173.32-39.715 24.338"/>
  <path d="m54.199 138.51-46.436 3.6546"/>
  <path d="m59.925 102.36-43.034-17.825"/>
  <path d="m81.44 72.742-30.251-35.419"/>
  <path d="m114.05 56.124-10.874-45.292"/>
  <path d="m150.66 56.123 10.874-45.292"/>
  <path d="m183.27 72.741 30.251-35.419"/>
  <path d="m204.79 102.35 43.034-17.825"/>
  <path d="m65.511 173.32-39.715 24.338"/>
  <path d="m54.199 138.51-46.436 3.6546"/>
  <path d="m59.925 102.36-43.034-17.825"/>
  <path d="m81.44 72.742-30.251-35.419"/>
  <path d="m114.05 56.124-10.874-45.292"/>
  <path d="m150.66 56.123 10.874-45.292"/>
  <path d="m183.27 72.741 30.251-35.419"/>
  <path d="m204.79 102.35 43.034-17.825"/>
  <path d="m210.52 138.51 46.436 3.6546"/>
  <path d="m65.511 173.32-39.715 24.338"/>
  <path d="m54.199 138.51-46.436 3.6546"/>
  <path d="m59.925 102.36-43.034-17.825"/>
  <path d="m81.44 72.742-30.251-35.419"/>
  <path d="m114.05 56.124-10.874-45.292"/>
  <path d="m150.66 56.123 10.874-45.292"/>
  <path d="m183.27 72.741 30.251-35.419"/>
  <path d="m204.79 102.35 43.034-17.825"/>
  <path d="m210.52 138.51 46.436 3.6546"/>
  <path d="m199.21 173.32 39.715 24.338"/>
 </g>
</svg>
