<?xml version="1.0" encoding="UTF-8"?>
<!-- Created with Inkscape (http://www.inkscape.org/) -->
<svg width="1e3" height="1e3" version="1.1" viewBox="0 0 264.58 264.58" xmlns="http://www.w3.org/2000/svg">
 <g stroke-linecap="round" stroke-linejoin="round">
  <path transform="scale(.26458)" d="m500.25 0a500.25 500.25 0 0 0-500.25 500.25 500.25 500.25 0 0 0 500.25 500.25 500.25 500.25 0 0 0 500.25-500.25 500.25 500.25 0 0 0-500.25-500.25zm0 250.2a250.05 250.05 0 0 1 250.05 250.05 250.05 250.05 0 0 1-250.05 250.05 250.05 250.05 0 0 1-250.05-250.05 250.05 250.05 0 0 1 250.05-250.05z" color="#000000" stroke-width="100" style="-inkscape-stroke:none"/>
  <g fill="none" stroke="#656565" stroke-width="15.346">
   <path d="m65.511 173.32-39.715 24.338"/>
   <path d="m54.199 138.51-46.436 3.6546"/>
   <path d="m59.925 102.36-43.034-17.825"/>
   <path d="m81.44 72.742-30.251-35.419"/>
   <path d="m114.05 56.124-10.874-45.292"/>
   <path d="m150.66 56.123 10.874-45.292"/>
   <path d="m183.27 72.741 30.251-35.419"/>
   <path d="m204.79 102.35 43.034-17.825"/>
   <path d="m210.52 138.51 46.436 3.6546"/>
   <path d="m199.21 173.32 39.715 24.338"/>
  </g>
 </g>
 <g display="none" fill="none" stroke-linecap="round">
  <g stroke-width="15.875">
   <path d="m65.511 173.32-39.715 24.338" stroke="#30f1ff"/>
   <path d="m132.36 85.576v93.564" stroke="#000"/>
   <path d="m65.511 173.32-39.715 24.338" stroke="#30f1ff"/>
   <path d="m54.199 138.51-46.436 3.6546" stroke="#30f1ff"/>
  </g>
  <path d="m92.08 112.83c4.101-8.3276 8.202-16.655 15.256-20.819s17.06-4.1639 27.331-4.1639c10.271 0 20.806 0 27.859 4.6901s10.625 14.07-1.6961 25.92c-12.322 11.851-40.535 26.172-54.643 35.589-14.107 9.4174-14.107 13.93-14.107 16.187 0 2.2567 0 2.2569 7.0539 2.2568 7.0539-1.2e-4 21.161-3.5e-4 32.054-4.7e-4 10.893-1.2e-4 18.572-1.2e-4 25.626 0 7.0536 1.2e-4 13.482 3.5e-4 16.696-2.7348s3.214-8.2059 3.214-13.677" stroke="#000" stroke-width="14.361"/>
 </g>
 <g fill="none" stroke-linecap="round">
  <g stroke="#30f1ff" stroke-width="15.875">
   <path d="m65.511 173.32-39.715 24.338"/>
   <path d="m54.199 138.51-46.436 3.6546"/>
   <path d="m59.925 102.36-43.034-17.825"/>
  </g>
  <path d="m91.767 104.49c0-4.2404 0-8.4811 3.8509-11.633s11.552-5.2159 18.318-6.2477c6.7654-1.0318 12.594-1.0318 19.704-1.0318 7.1096 0 15.499 0 22.535 0.76127 7.0359 0.76127 12.718 2.2837 16.32 6.2311 3.602 3.9474 5.1244 10.319 1.8624 17.355-3.262 7.0358-11.308 14.735-19.105 18.585-7.7971 3.8498-15.345 3.8498-15.329 3.8498 0.0157 0 7.5948 0 15.392 4.5226s15.812 13.567 18.621 20.166 0.41147 10.75-2.8629 14.025c-3.2744 3.2745-7.426 5.6714-14.024 6.8699-6.5984 1.1985-15.644 1.1985-25.31 1.1985-9.6666 0-19.954 0-26.78-0.97103-6.8259-0.97103-10.19-2.9132-11.872-6.5463-1.6822-3.6331-1.6822-8.9571-1.6822-14.281" stroke="#000" stroke-linejoin="bevel" stroke-width="15.875"/>
 </g>
 <g display="none" fill="none" stroke="#30f1ff" stroke-linecap="round" stroke-width="15.875">
  <path d="m65.511 173.32-39.715 24.338"/>
  <path d="m54.199 138.51-46.436 3.6546"/>
  <path d="m59.925 102.36-43.034-17.825"/>
  <path d="m81.44 72.742-30.251-35.419"/>
  <path d="m65.511 173.32-39.715 24.338"/>
  <path d="m54.199 138.51-46.436 3.6546"/>
  <path d="m59.925 102.36-43.034-17.825"/>
  <path d="m81.44 72.742-30.251-35.419"/>
  <path d="m114.05 56.124-10.874-45.292"/>
  <path d="m65.511 173.32-39.715 24.338"/>
  <path d="m54.199 138.51-46.436 3.6546"/>
  <path d="m59.925 102.36-43.034-17.825"/>
  <path d="m81.44 72.742-30.251-35.419"/>
  <path d="m114.05 56.124-10.874-45.292"/>
  <path d="m150.66 56.123 10.874-45.292"/>
  <path d="m65.511 173.32-39.715 24.338"/>
  <path d="m54.199 138.51-46.436 3.6546"/>
  <path d="m59.925 102.36-43.034-17.825"/>
  <path d="m81.44 72.742-30.251-35.419"/>
  <path d="m114.05 56.124-10.874-45.292"/>
  <path d="m150.66 56.123 10.874-45.292"/>
  <path d="m183.27 72.741 30.251-35.419"/>
  <path d="m65.511 173.32-39.715 24.338"/>
  <path d="m54.199 138.51-46.436 3.6546"/>
  <path d="m59.925 102.36-43.034-17.825"/>
  <path d="m81.44 72.742-30.251-35.419"/>
  <path d="m114.05 56.124-10.874-45.292"/>
  <path d="m150.66 56.123 10.874-45.292"/>
  <path d="m183.27 72.741 30.251-35.419"/>
  <path d="m204.79 102.35 43.034-17.825"/>
  <path d="m65.511 173.32-39.715 24.338"/>
  <path d="m54.199 138.51-46.436 3.6546"/>
  <path d="m59.925 102.36-43.034-17.825"/>
  <path d="m81.44 72.742-30.251-35.419"/>
  <path d="m114.05 56.124-10.874-45.292"/>
  <path d="m150.66 56.123 10.874-45.292"/>
  <path d="m183.27 72.741 30.251-35.419"/>
  <path d="m204.79 102.35 43.034-17.825"/>
  <path d="m210.52 138.51 46.436 3.6546"/>
  <path d="m65.511 173.32-39.715 24.338"/>
  <path d="m54.199 138.51-46.436 3.6546"/>
  <path d="m59.925 102.36-43.034-17.825"/>
  <path d="m81.44 72.742-30.251-35.419"/>
  <path d="m114.05 56.124-10.874-45.292"/>
  <path d="m150.66 56.123 10.874-45.292"/>
  <path d="m183.27 72.741 30.251-35.419"/>
  <path d="m204.79 102.35 43.034-17.825"/>
  <path d="m210.52 138.51 46.436 3.6546"/>
  <path d="m199.21 173.32 39.715 24.338"/>
 </g>
</svg>
