<?xml version="1.0" encoding="UTF-8" standalone="no"?>
<!-- Created with Inkscape (http://www.inkscape.org/) -->

<svg
   width="1000"
   height="1000"
   viewBox="0 0 264.58333 264.58334"
   version="1.1"
   id="svg5"
   inkscape:version="1.1 (c68e22c387, 2021-05-23)"
   sodipodi:docname="logo7.svg"
   xmlns:inkscape="http://www.inkscape.org/namespaces/inkscape"
   xmlns:sodipodi="http://sodipodi.sourceforge.net/DTD/sodipodi-0.dtd"
   xmlns="http://www.w3.org/2000/svg"
   xmlns:svg="http://www.w3.org/2000/svg">
  <sodipodi:namedview
     id="namedview7"
     pagecolor="#505050"
     bordercolor="#ffffff"
     borderopacity="1"
     inkscape:pageshadow="0"
     inkscape:pageopacity="0"
     inkscape:pagecheckerboard="1"
     inkscape:document-units="px"
     showgrid="false"
     units="px"
     inkscape:zoom="0.81134749"
     inkscape:cx="119.5542"
     inkscape:cy="561.41173"
     inkscape:window-width="3440"
     inkscape:window-height="1387"
     inkscape:window-x="-8"
     inkscape:window-y="1432"
     inkscape:window-maximized="1"
     inkscape:current-layer="layer1" />
  <defs
     id="defs2">
    <inkscape:path-effect
       effect="bspline"
       id="path-effect4195"
       is_visible="true"
       lpeversion="1"
       weight="33.333333"
       steps="2"
       helper_size="0"
       apply_no_weight="true"
       apply_with_weight="true"
       only_selected="false" />
    <inkscape:path-effect
       effect="bspline"
       id="path-effect2487"
       is_visible="true"
       lpeversion="1"
       weight="33.333333"
       steps="2"
       helper_size="0"
       apply_no_weight="true"
       apply_with_weight="true"
       only_selected="false" />
  </defs>
  <g
     inkscape:label="Layer 1"
     inkscape:groupmode="layer"
     id="layer1">
    <path
       id="path3225"
       style="stroke-width:100;stroke-linecap:round;stroke-linejoin:round;-inkscape-stroke:none;fill:#ffffff;fill-opacity:1"
       d="M 385.60547 13.423828 A 500.40207 500.40207 0 0 0 0 500.40234 A 500.40207 500.40207 0 0 0 2.6777344 550.86719 L 210.26758 499.46484 L 385.60547 13.423828 z M 725.12695 53.632812 C 700.63876 57.971779 673.20499 64.231946 644.94141 70.865234 A 49.999935 49.999935 0 0 1 644.91992 70.869141 L 550.40039 93.490234 L 550.40039 415.24414 L 621.39648 397.66602 A 49.999935 49.999935 0 0 1 621.44531 397.64844 C 702.38117 377.51718 775.83827 353.22549 798.98633 327.96289 C 822.13291 302.70178 826.31971 249.43216 826.11523 179.48242 C 826.05292 158.23344 825.72496 137.8266 824.64648 119.52734 A 500.40207 500.40207 0 0 0 725.12695 53.632812 z M 450.39844 160.4375 L 339.65039 467.42773 L 450.39844 440.00586 L 450.39844 160.4375 z M 925.80859 237.19336 C 924.09662 292.06756 915.16401 349.19658 872.7168 395.52148 C 814.92869 458.58846 726.51988 474.55818 645.58398 494.68945 A 49.999935 49.999935 0 0 1 645.57227 494.69141 A 49.999937 49.999937 0 0 1 645.53125 494.70508 L 550.40039 518.26172 L 550.40039 998.29297 A 500.40207 500.40207 0 0 0 1000.8047 500.40234 A 500.40207 500.40207 0 0 0 925.80859 237.19336 z M 450.39844 543.02539 L 298.8418 580.55273 L 187.15039 890.16016 A 500.40207 500.40207 0 0 0 450.39844 997.92773 L 450.39844 543.02539 z M 169.45703 612.5918 L 22.863281 648.89258 A 500.40207 500.40207 0 0 0 101.23242 801.71484 L 169.45703 612.5918 z "
       transform="scale(0.26458333)" />
  </g>
</svg>
