<?xml version="1.0" encoding="UTF-8" standalone="no"?>
<!-- Created with Inkscape (http://www.inkscape.org/) -->

<svg
   width="120"
   height="120"
   viewBox="0 0 31.749999 31.750001"
   version="1.1"
   id="svg3532"
   inkscape:version="1.1 (c68e22c387, 2021-05-23)"
   sodipodi:docname="github-mark.svg"
   xmlns:inkscape="http://www.inkscape.org/namespaces/inkscape"
   xmlns:sodipodi="http://sodipodi.sourceforge.net/DTD/sodipodi-0.dtd"
   xmlns="http://www.w3.org/2000/svg"
   xmlns:svg="http://www.w3.org/2000/svg">
  <sodipodi:namedview
     id="namedview3534"
     pagecolor="#505050"
     bordercolor="#ffffff"
     borderopacity="1"
     inkscape:pageshadow="0"
     inkscape:pageopacity="0"
     inkscape:pagecheckerboard="1"
     inkscape:document-units="px"
     showgrid="false"
     units="px"
     width="120px"
     inkscape:zoom="4.5896745"
     inkscape:cx="114.3872"
     inkscape:cy="109.70277"
     inkscape:window-width="3440"
     inkscape:window-height="1387"
     inkscape:window-x="-8"
     inkscape:window-y="1432"
     inkscape:window-maximized="1"
     inkscape:current-layer="layer1" />
  <defs
     id="defs3529">
    <pattern
       id="EMFhbasepattern"
       patternUnits="userSpaceOnUse"
       width="6"
       height="6"
       x="0"
       y="0" />
    <pattern
       id="EMFhbasepattern-1"
       patternUnits="userSpaceOnUse"
       width="6"
       height="6"
       x="0"
       y="0" />
  </defs>
  <g
     inkscape:label="Layer 1"
     inkscape:groupmode="layer"
     id="layer1">
    <path
       style="fill-opacity:1;fill-rule:evenodd;stroke:none;stroke-width:0.722215"
       d="m 15.85307,0.84444532 c -8.6665929,0 -15.64801465,6.98142238 -15.64801465,15.64801468 0,6.981422 4.33329605,12.999885 10.59250065,14.925795 0.962955,0.240727 1.203693,-0.240726 1.203693,-0.722215 0,-0.481478 0,-1.444433 0,-2.648126 C 7.4272146,29.010867 6.7049995,25.881267 6.7049995,25.881267 5.9827817,24.196097 4.7790889,23.714619 4.7790889,23.714619 3.5753961,22.751664 5.0198427,22.751664 5.0198427,22.751664 c 1.4444303,0 2.4073856,1.444433 2.4073856,1.444433 1.4444329,2.407385 3.6110817,1.68517 4.5740337,1.444433 0,-0.962956 0.481478,-1.685173 0.962956,-2.166648 -3.6110791,-0.481478 -7.2221602,-1.685174 -7.2221602,-7.70364 0,-1.685171 0.7222152,-3.129601 1.6851705,-4.333296 C 7.1865017,11.196219 6.7050131,9.5110381 7.6679548,7.34439 c 0,0 1.2036928,-0.4814776 4.3332962,1.6851705 1.203696,-0.4814777 2.407389,-0.4814777 3.851822,-0.4814777 1.203692,0 2.648123,0 3.851818,0.4814777 3.129601,-2.1666481 4.333296,-1.6851705 4.333296,-1.6851705 0.962953,2.1666481 0.240727,3.851818 0.240727,4.092556 0.962955,1.203695 1.44443,2.648125 1.44443,4.333296 0,6.018466 -3.611078,7.222162 -6.981419,7.70364 0.481478,0.481475 0.962955,1.44443 0.962955,2.888863 0,2.166647 0,3.851817 0,4.333295 0,0.481475 0.240727,0.962953 0.962953,0.722215 6.259207,-2.166648 10.833243,-7.944373 10.833243,-14.925795 0,-8.6665923 -6.981422,-15.64801468 -15.648014,-15.64801468 z"
       id="path3698" />
  </g>
</svg>
