<?xml version="1.0" encoding="UTF-8" standalone="no"?>
<!-- Created with Inkscape (http://www.inkscape.org/) -->

<svg
   width="1000"
   height="1000"
   viewBox="0 0 264.58333 264.58334"
   version="1.1"
   id="svg5"
   inkscape:version="1.1 (c68e22c387, 2021-05-23)"
   sodipodi:docname="yt.svg"
   xmlns:inkscape="http://www.inkscape.org/namespaces/inkscape"
   xmlns:sodipodi="http://sodipodi.sourceforge.net/DTD/sodipodi-0.dtd"
   xmlns="http://www.w3.org/2000/svg"
   xmlns:svg="http://www.w3.org/2000/svg">
  <sodipodi:namedview
     id="namedview7"
     pagecolor="#505050"
     bordercolor="#ffffff"
     borderopacity="1"
     inkscape:pageshadow="0"
     inkscape:pageopacity="0"
     inkscape:pagecheckerboard="1"
     inkscape:document-units="px"
     showgrid="false"
     units="px"
     inkscape:zoom="0.57370932"
     inkscape:cx="397.4138"
     inkscape:cy="560.38832"
     inkscape:window-width="3440"
     inkscape:window-height="1387"
     inkscape:window-x="-8"
     inkscape:window-y="1432"
     inkscape:window-maximized="1"
     inkscape:current-layer="layer1" />
  <defs
     id="defs2">
    <pattern
       id="EMFhbasepattern"
       patternUnits="userSpaceOnUse"
       width="6"
       height="6"
       x="0"
       y="0" />
  </defs>
  <g
     inkscape:label="Layer 1"
     inkscape:groupmode="layer"
     id="layer1">
    <path
       style="fill-opacity:1;fill-rule:nonzero;stroke:none;stroke-width:1.60937"
       d="M 257.26384,67.177139 C 254.04514,55.911518 245.46182,46.791736 234.19616,44.109442 213.81075,38.744866 132.26918,38.744866 132.26918,38.744866 c 0,0 -81.541632,0 -101.92704,5.364576 C 19.076543,46.791736 10.493223,55.911518 7.2744548,67.177139 1.9099026,87.562536 1.9099026,129.94272 1.9099026,129.94272 c 0,0 0,42.38017 5.3645522,62.76558 3.2187682,11.26562 11.8020882,19.84894 23.0676852,23.06768 20.385408,5.3646 101.92704,5.3646 101.92704,5.3646 0,0 81.54157,0 101.92698,-5.3646 11.26566,-3.21874 19.84898,-11.80206 23.06768,-23.06768 5.36462,-20.38541 5.36462,-62.76558 5.36462,-62.76558 0,0 0,-42.380184 -5.36462,-62.765581 M 106.51922,169.10415 c 0,-78.322872 0,-78.322872 0,-78.322872 67.5937,39.161442 67.5937,39.161442 67.5937,39.161442 z"
       id="path827" />
  </g>
</svg>
